# xmcd CD database file
#
# Track frame offsets:
#	150
#	18085
#	34914
#	52100
#	72396
#	93752
#	111506
#	126922
#	141263
#	159401
#	176811
#	194563
#	211688
#	229956
#
# Disc length: 3250 seconds
#
# Revision: 1
# Processed by: cddbd v1.5.2PL0 Copyright (c) Steve Scherf et al.
# Submitted via: CDex 1.51
#
DISCID=cc0cb00e
DTITLE=גידי גוב - בקצה ההר
DYEAR=2005
DGENRE=Blues
TTITLE0=הליצן העצוב
TTITLE1=בית ישן
TTITLE2=מי תרצי
TTITLE3=בקצה ההר
TTITLE4=אם
TTITLE5=כשאת מחייכת
TTITLE6=כנראה שלא אומר
TTITLE7=מדלן יקירתי
TTITLE8=מכיוון שאתה נוסע
TTITLE9=כאילו לא
TTITLE10=הכל פוליטי
TTITLE11=אלה החיים
TTITLE12=כל שושנה
TTITLE13=אוהבת
EXTD=YEAR: 2005
EXTT0=
EXTT1=
EXTT2=
EXTT3=
EXTT4=
EXTT5=
EXTT6=
EXTT7=
EXTT8=
EXTT9=
EXTT10=
EXTT11=
EXTT12=
EXTT13=
PLAYORDER=
